<?xml version="1.0" standalone="no"?><!DOCTYPE svg PUBLIC "-//W3C//DTD SVG 1.1//EN" "http://www.w3.org/Graphics/SVG/1.1/DTD/svg11.dtd"><svg t="1607433325145" class="icon" viewBox="0 0 1024 1024" version="1.1" xmlns="http://www.w3.org/2000/svg" p-id="3903" xmlns:xlink="http://www.w3.org/1999/xlink" width="16" height="16"><defs><style type="text/css"></style></defs><path d="M465.175725 15.776068a54.026993 54.026993 0 0 1 70.263084-5.225408l6.065206 5.225408 458.529607 458.436296a53.933682 53.933682 0 0 1 5.225409 70.263084l-5.225409 6.065206-458.063052 458.063053a54.026993 54.026993 0 0 1-81.553699-70.263084l5.225408-6.065206 419.898908-419.898908L465.175725 91.637804a53.933682 53.933682 0 0 1-5.225409-70.263083z" fill="#43A0FF" p-id="3904"></path><path d="M24.00194 15.776068A54.026993 54.026993 0 0 1 94.265024 10.55066l6.065206 5.225408 458.063053 458.436296a54.026993 54.026993 0 0 1 5.225408 70.263084l-5.225408 6.065206-458.063053 458.063053a54.026993 54.026993 0 0 1-81.553699-70.263084l5.225409-6.065206 419.898907-419.898908L24.00194 91.637804A54.026993 54.026993 0 0 1 18.776531 21.374721z" fill="#007AFF" p-id="3905"></path></svg>