<?xml version="1.0" standalone="no"?><!DOCTYPE svg PUBLIC "-//W3C//DTD SVG 1.1//EN" "http://www.w3.org/Graphics/SVG/1.1/DTD/svg11.dtd"><svg t="1607340006809" class="icon" viewBox="0 0 1024 1024" version="1.1" xmlns="http://www.w3.org/2000/svg" p-id="2832" xmlns:xlink="http://www.w3.org/1999/xlink" width="48" height="48"><defs><style type="text/css"></style></defs><path d="M210.0224 0h604.16l-0.1024 4.7104c-27.2384 2.6624-54.4768 5.888-81.8688 5.5808-153.6512-0.1024-307.3024 0-460.9024-0.0512-20.8896 2.1504-40.8064-4.7104-61.44-5.6832l0.1536-4.5568z" fill="#064711" p-id="2833"></path><path d="M172.8512 8.3456c12.0832-2.7648 24.4224-3.9936 37.0176-3.7888 20.6336 0.9728 40.5504 7.8336 61.44 5.6832 153.6 0.0512 307.2512-0.0512 460.9024 0.0512 27.392 0.3072 54.6304-2.9184 81.8688-5.5808 12.8 1.3312 25.5488 3.072 38.2976 5.2736-34.304 8.8064-69.9392 4.5056-104.8576 5.4784-170.7008-0.1536-341.3504-0.2048-512.0512 0.1024-21.4528 2.8672-41.9328-3.1744-62.6176-7.2192z" fill="#035010" p-id="2834"></path><path d="M137.0112 19.3536c11.6736-4.4544 23.7568-7.7824 35.84-11.008 20.6848 4.0448 41.1648 10.0864 62.6176 7.2192 170.7008-0.3072 341.3504-0.256 512.0512-0.1024 34.9184-0.9728 70.5536 3.328 104.8576-5.4784 11.776 1.9456 23.4496 4.9152 34.6112 9.2672-249.9584 1.9968-500.0192 2.048-749.9776 0.1024z" fill="#035A12" p-id="2835"></path><path d="M116.4288 29.3888c6.7072-3.584 13.4144-7.3728 20.5824-10.0352 249.9584 1.9456 500.0192 1.8944 749.9776-0.1024 7.1168 2.7136 13.8752 6.4 20.6336 9.9328-263.68 2.6624-527.5136 2.304-791.1936 0.2048z" fill="#026A16" p-id="2836"></path><path d="M105.7792 34.56c2.6624-1.3312 7.9872-3.8912 10.6496-5.1712 263.68 2.0992 527.5136 2.4576 791.1936-0.2048 6.912 3.2256 13.7728 6.656 20.48 10.2912-116.4288 0-232.96 2.9184-349.4912 0.768-98.9696-4.9152-197.888 2.1504-297.0112-3.1232-34.816 5.0176-69.4272-1.024-104.192 1.9968-23.552-0.8192-50.176 8.8064-71.6288-4.5568z" fill="#027A1C" p-id="2837"></path><path d="M86.272 45.3632c5.9392-4.5056 12.7488-7.7312 19.5072-10.8032 21.4528 13.3632 48.0768 3.7376 71.6288 4.5568 34.7648-3.0208 69.376 3.0208 104.192-1.9968 99.1232 5.2736 198.0416-1.792 297.0112 3.1232 116.5312 2.1504 233.0624-0.768 349.4912-0.768 5.6832 2.56 10.5472 6.4 15.104 10.5984-38.0928 2.9696-77.4144-2.9696-114.8416 4.5568l-4.0448 1.2288-4.3008-0.512c-13.0048-1.0752-38.9632-3.1744-51.968-4.2496-187.8016 0.1024-375.6032 0.3072-563.4048-0.1024-7.2192-0.1024-14.4896 0.7168-21.0432 3.9424l-3.8912 1.4848-1.6384-9.7792c-30.6176-0.9728-61.2352-0.6144-91.8016-1.28z" fill="#068221" p-id="2838"></path><path d="M70.2976 60.5184c5.1712-5.2224 10.0864-10.752 15.9744-15.1552 30.5664 0.6656 61.184 0.3072 91.8016 1.28l1.6384 9.7792c-0.1024 2.6112-0.256 7.8848-0.3584 10.496-10.3424-7.1168-19.9168-18.2272-35.4816-8.9088-24.4224 2.2016-48.9984 3.8912-73.5744 2.5088z" fill="#029021" p-id="2839"></path><path d="M183.6032 54.9376c6.5536-3.2256 13.824-4.0448 21.0432-3.9424 187.8016 0.4096 375.6032 0.2048 563.4048 0.1024 13.0048 1.0752 38.9632 3.1744 51.968 4.2496-210.3296 1.8944-420.7616 0.9728-631.0912 0.512l-5.3248-0.9216z" fill="#55A164" p-id="2840"></path><path d="M828.3648 54.6304c37.4272-7.5264 76.7488-1.5872 114.8416-4.5568 20.1728 17.8688 39.5264 37.3248 50.9952 62.208-19.456-3.84-36.5056-14.2336-54.1184-22.6816-32.8704-6.8096-65.792-13.5168-99.1232-17.2544-4.0448 4.9152-7.5264 10.24-11.1104 15.4624-0.256-11.1104-0.8192-22.1696-1.4848-33.1776z" fill="#029824" p-id="2841"></path><path d="M70.2976 60.5184c24.576 1.3824 49.152-0.3072 73.5744-2.5088 15.5648-9.3184 25.1392 1.792 35.4816 8.9088 0.2048 9.0112-1.8432 17.8176-5.1712 26.1632-5.3248-7.1168-11.9296-13.4656-20.4288-16.5376-13.0048 7.6288-21.7088 24.4736-41.1648 15.0016-29.0816-1.7408-58.0608 5.4272-83.1488 20.0192 8.96-20.3264 24.7808-36.2496 40.8576-51.0464z" fill="#029C25" p-id="2842"></path><path d="M179.712 56.4224l3.8912-1.4848c0.768 130.56 1.8944 261.1712-0.2048 391.7312-9.216-11.7248-2.4064-29.3376-5.2224-43.2128 0.512-103.4752 5.0176-207.2576-3.9936-310.3744 3.328-8.3456 5.376-17.152 5.1712-26.1632 0.1024-2.6112 0.256-7.8848 0.3584-10.496z" fill="#179A35" p-id="2843"></path><path d="M183.6032 54.9376l5.3248 0.9216c0.1024 2.56 0.256 7.7312 0.3584 10.2912 0.2048 9.3184 0.5632 27.904 0.768 37.2224-1.4848 112.2816-0.0512 224.5632-0.7168 336.896l-0.4096 5.3248-5.5296 1.0752c2.0992-130.56 0.9728-261.1712 0.2048-391.7312z" fill="#8FD99F" p-id="2844"></path><path d="M188.928 55.8592c210.3296 0.4608 420.7616 1.3824 631.0912-0.512-0.2048 2.7136-0.5632 8.192-0.768 10.9568-158.1568-10.9568-317.6448-2.2528-476.2624-4.5056-50.6368 9.984-104.1408-12.1344-153.7024 4.352-0.1024-2.56-0.256-7.7312-0.3584-10.2912z" fill="#D4F0D9" p-id="2845"></path><path d="M820.0192 55.3472l4.3008 0.512c1.28 135.168-2.5088 270.4896 1.792 405.504l0.2048 3.7376c-3.7888 88.6784-1.8432 177.5616-1.5872 266.2912 2.2528 0.256 6.8608 0.768 9.1648 0.9728l5.2224 0.512v5.0176l-5.4784 1.1776c-3.4816-0.768-10.4448-2.304-13.8752-3.1232-2.0992-141.568 1.28-283.1872-1.5872-424.7552 0.5632-24.832 1.9968-49.7664-0.0512-74.5472 1.6896-56.7808 0.9216-113.5616 1.1264-170.3424 0.2048-2.7648 0.5632-8.2432 0.768-10.9568z" fill="#84D195" p-id="2846"></path><path d="M824.32 55.8592l4.0448-1.2288c0.6656 11.008 1.2288 22.0672 1.4848 33.1776-0.6144 36.8128-0.9728 73.6768 0.9728 110.4896-4.7104 87.6544 3.2256 175.6672-4.7104 263.0656-4.3008-135.0144-0.512-270.336-1.792-405.504z" fill="#149C36" p-id="2847"></path><path d="M189.2864 66.1504c49.5616-16.4864 103.0656 5.632 153.7024-4.352 158.6176 2.2528 318.1056-6.4512 476.2624 4.5056-0.2048 56.7808 0.5632 113.5616-1.1264 170.3424-12.3392-48.5376 9.0112-102.656-15.6672-148.2752-67.0208-12.9024-135.6288-9.4208-203.3152-7.0656-34.048-5.2224-68.608-5.6832-102.5536 0.2048-28.928 3.7888-58.7264-10.6496-86.6816 1.5872-4.1472 17.5616 19.3536 23.6032 20.1216 40.0896-16.7936-13.5168-35.328-24.832-55.3984-32.7168-11.3152-7.424-28.416-10.5472-37.4784 0.7168-24.1664 7.8336-43.008 24.6272-60.2112 42.5984 3.9936-17.6128 19.0976-28.5696 31.6928-40.2432 7.5776-7.7824 27.0848-0.9728 24.576-16.4352-42.3936-0.7168-84.7872-1.1264-127.1808 0.4096-7.8848 6.8096-11.9296 16.5376-15.9744 25.856-0.2048-9.3184-0.5632-27.904-0.768-37.2224z" fill="#E8F2E9" p-id="2848"></path><path d="M840.96 72.3456c33.3312 3.7376 66.2528 10.4448 99.1232 17.2544 17.6128 8.448 34.6624 18.8416 54.1184 22.6816 17.2544 30.5152 22.6304 65.7408 29.7984 99.6352v87.296c-6.7072-12.6464-8.5504-27.904-18.3808-38.7584-1.4336 14.8992-12.4928 27.4944-10.496 42.752 0 14.8992-0.1536 30.464-9.0112 43.1104-15.872 27.2384-14.1824 66.3552-42.7008 85.1456-13.4656 16.2816-14.2848 40.448-32.256 54.272-14.4384 33.1776-41.5232 60.5184-46.336 97.792-14.4896 29.696-4.7616 69.2224-29.44 93.6448-1.9456-147.2512-0.3584-294.5024-0.6656-441.7536 1.5872-12.8 0.3072-25.1904-3.8912-37.12-1.9456-36.8128-1.5872-73.6768-0.9728-110.4896 3.584-5.2224 7.0656-10.5472 11.1104-15.4624z" fill="#01A726" p-id="2849"></path><path d="M112.5888 91.5456c19.456 9.472 28.16-7.3728 41.1648-15.0016 8.4992 3.072 15.104 9.4208 20.4288 16.5376 9.0112 103.1168 4.5056 206.8992 3.9936 310.3744 2.2528 16.5376-24.7808 54.3232 5.5808 58.5216 10.9568 6.5536 21.1968-2.304 31.744-5.12 13.2608 0.3072 26.3168 3.072 39.5776 3.584 6.1952-12.4416 11.1616-26.1632 22.8864-34.7136 18.3808-0.6144 36.5056 0.9728 54.528 4.7616 0.512 6.8096 0.5632 13.6192 0.1536 20.4288-9.9328 1.28-17.408-5.5808-25.2416-10.2912-0.3072 8.3968-0.9728 25.1392-1.3312 33.536-15.4112 1.7408-23.04 15.2064-31.3344 26.4192-27.0336-2.816-56.1664 19.2-80.896 1.8432-10.3936-1.3824-20.8896 6.1952-23.5008 16.384 2.6624 18.944-12.3392 48.2304 8.3456 60.928 0.256 19.6608 0.1024 39.2704-0.512 58.9312-1.9968 5.8368-3.84 11.776-5.4272 17.7664-24.1152-45.1584-38.912-96.256-61.9008-142.592-30.0544-18.7392-37.888-56.7296-64.3584-79.104-7.3728-12.2368-12.6976-25.4976-18.0224-38.7072-9.0624-3.9936-19.1488-8.2944-28.4672-2.4576V211.9168c6.7072-34.2528 13.4656-69.0176 29.44-100.352 25.088-14.592 54.0672-21.76 83.1488-20.0192z" fill="#02A826" p-id="2850"></path><path d="M206.0288 77.5168c42.3936-1.536 84.7872-1.1264 127.1808-0.4096 2.5088 15.4624-16.9984 8.6528-24.576 16.4352-12.5952 11.6736-27.6992 22.6304-31.6928 40.2432-7.68 23.7056-15.4112 50.8416-3.84 74.496 8.6528 27.904 33.536 46.4896 58.88 58.5216 14.3872 4.5568 33.6384 8.4992 47.872 0.4096 31.3856-12.7488 54.8864-35.1232 65.8432-67.4816l4.9664-0.1536c3.9936 23.6544-9.6768 42.5472-20.3776 61.696 64.4096-0.3584 128.8192 1.1264 193.1776-1.9456 15.2064 5.2736 30.3616 13.2096 46.7968 8.0384 13.2608 9.7792 35.328 15.4624 37.376 34.1504 1.4848 16.384 24.9344 12.032 27.2384 27.5968-3.6352 19.2512 24.32 32.1024 11.9808 51.4048-33.7408-35.0208-44.8-97.0752-100.4544-105.5232-59.7504-7.936-120.3712-1.6896-180.48-3.7888-22.272 2.6624-46.7968-5.376-67.9936 3.9424-44.4928 14.1312-67.0208 57.6-91.648 93.3888-22.272 22.1696-37.8368 50.3296-59.3408 72.9088-19.2-0.5632-38.4-1.1776-57.6-1.1776 0.6656-112.3328-0.768-224.6144 0.7168-336.896 4.0448-9.3184 8.0896-19.0464 15.9744-25.856z" fill="#F5FCF7" p-id="2851"></path><path d="M409.9072 83.0976c27.9552-12.2368 57.7536 2.2016 86.6816-1.5872 33.9456-5.888 68.5056-5.4272 102.5536-0.2048 67.6864-2.3552 136.2944-5.8368 203.3152 7.0656 24.6784 45.6192 3.328 99.7376 15.6672 148.2752 2.048 24.7808 0.6144 49.7152 0.0512 74.5472-4.0448 41.1136-9.5744 82.6368-4.5568 123.9552-3.0208 12.3904-5.0176 26.2144-13.056 36.5056-8.96-18.432-16.4352-39.168-32.8192-52.4288-6.912-12.9536-13.8752-25.856-20.8896-38.7072 12.3392-19.3024-15.616-32.1536-11.9808-51.4048-2.304-15.5648-25.7536-11.2128-27.2384-27.5968-2.048-18.688-24.1152-24.3712-37.376-34.1504-16.4352 5.1712-31.5904-2.7648-46.7968-8.0384-64.3584 3.072-128.768 1.5872-193.1776 1.9456 10.7008-19.1488 24.3712-38.0416 20.3776-61.696-1.28-15.0016 5.4272-33.536-5.3248-45.9264-7.5264-8.7552-12.5952-19.2512-15.3088-30.464-0.768-16.4864-24.2688-22.528-20.1216-40.0896z" fill="#FBFCFC" p-id="2852"></path><path d="M337.152 91.1872c9.0624-11.264 26.1632-8.1408 37.4784-0.7168-9.3696 0.1536-28.1088 0.512-37.4784 0.7168z" fill="#93D7A1" p-id="2853"></path><path d="M276.9408 133.7856c17.2032-17.9712 36.0448-34.7648 60.2112-42.5984 9.3696-0.2048 28.1088-0.5632 37.4784-0.7168 20.0704 7.8848 38.6048 19.2 55.3984 32.7168 2.7136 11.2128 7.7824 21.7088 15.3088 30.464 0.256 15.36 0.256 30.72 0.3584 46.08-10.9568 32.3584-34.4576 54.7328-65.8432 67.4816-15.9744-0.1536-31.8976-0.4096-47.872-0.4096-25.344-12.032-50.2272-30.6176-58.88-58.5216-11.5712-23.6544-3.84-50.7904 3.84-74.496z" fill="#0AA92D" p-id="2854"></path><path d="M445.3376 153.6512c10.752 12.3904 4.0448 30.9248 5.3248 45.9264l-4.9664 0.1536c-0.1024-15.36-0.1024-30.72-0.3584-46.08z" fill="#C3F7CF" p-id="2855"></path><path d="M830.8224 198.2976c4.1984 11.9296 5.4784 24.32 3.8912 37.12 0.3072 147.2512-1.28 294.5024 0.6656 441.7536 0.768 18.5344 4.4544 37.0688 3.7376 55.7056l-5.2224-0.512c-12.0832-88.4224 2.304-178.5344-7.5776-267.264l-0.2048-3.7376c7.936-87.3984 0-175.4112 4.7104-263.0656z" fill="#0AA32D" p-id="2856"></path><path d="M1005.6192 260.4544c9.8304 10.8544 11.6736 26.112 18.3808 38.7584v147.5584l-7.0144-10.2912c-21.4528-8.1408-19.2 22.8864-30.2592 33.1776-13.568 10.752-24.9344 23.6032-32.8192 39.1168-32.256 27.8528-49.4592 66.816-70.7584 102.6048-11.3664 23.296-12.7488 49.5616-17.1008 74.752 1.3824 15.2576 8.2432 29.5936 9.6768 44.9024-6.656 1.2288-19.9168 3.6864-26.5216 4.864-2.5088 0.512-7.5776 1.536-10.0864 1.9968v-5.0176c0.7168-18.6368-2.9696-37.1712-3.7376-55.7056 24.6784-24.4224 14.9504-63.9488 29.44-93.6448 4.8128-37.2736 31.8976-64.6144 46.336-97.792 17.9712-13.824 18.7904-37.9904 32.256-54.272 28.5184-18.7904 26.8288-57.9072 42.7008-85.1456 8.8576-12.6464 9.0112-28.2112 9.0112-43.1104-1.9968-15.2576 9.0624-27.8528 10.496-42.752z" fill="#02A025" p-id="2857"></path><path d="M331.9808 266.8032c15.9744 0 31.8976 0.256 47.872 0.4096-14.2336 8.0896-33.4848 4.1472-47.872-0.4096z" fill="#A8E9B7" p-id="2858"></path><path d="M397.9264 275.1488c21.1968-9.3184 45.7216-1.28 67.9936-3.9424 60.1088 2.0992 120.7296-4.1472 180.48 3.7888-82.7904 2.2528-165.6832 2.4576-248.4736 0.1536z" fill="#7ACA87" p-id="2859"></path><path d="M306.2784 368.5376c24.6272-35.7888 47.1552-79.2576 91.648-93.3888 82.7904 2.304 165.6832 2.0992 248.4736-0.1536 55.6544 8.448 66.7136 70.5024 100.4544 105.5232 7.0144 12.8512 13.9776 25.7536 20.8896 38.7072-20.1216-22.5792-40.6016-45.568-54.3744-72.704-5.2224-13.824-25.2416-16.6912-37.4784-13.568-109.312 2.9184-218.112-9.9328-327.3728-4.864-22.016 4.5056-17.5104 40.448-42.24 40.448z" fill="#09A92D" p-id="2860"></path><path d="M813.6192 435.1488c-5.0176-41.3184 0.512-82.8416 4.5568-123.9552 2.8672 141.568-0.512 283.1872 1.5872 424.7552 3.4304 0.8192 10.3936 2.3552 13.8752 3.1232 29.2864 2.0992 50.8416 24.6784 52.9408 54.3232-5.888-2.8672-11.5712-6.144-17.3056-9.3184-9.4208-9.6768-20.4288-17.6128-32.9216-22.8864-1.5872-0.9728-4.864-2.9184-6.4512-3.8912-7.8848-1.2288-23.6032-3.7376-31.4368-4.9664 7.5264-10.1376 17.8688-20.0192 10.0864-35.5328 0.512-78.8992 9.3696-157.5424 5.0176-236.544-13.4656 2.56-21.1968 22.2208-36.352 13.5168 8.192-6.912 16.3328-13.9776 23.3472-22.1184 8.0384-10.2912 10.0352-24.1152 13.056-36.5056z" fill="#E3F9E7" p-id="2861"></path><path d="M306.2784 368.5376c24.7296 0 20.224-35.9424 42.24-40.448 109.2608-5.0688 218.0608 7.7824 327.3728 4.864 12.2368-3.1232 32.256-0.256 37.4784 13.568 13.7728 27.136 34.2528 50.1248 54.3744 72.704-7.168 19.6096 20.8384 31.4368 21.248 51.2512-14.336 6.5024-30.3104 22.528-45.4144 9.5232-28.9792-37.0176-56.3712-76.288-75.3664-119.552-9.8304-7.1168-21.2992-12.3392-33.5872-12.8-2.2016-0.256-6.6048-0.8192-8.8064-1.0752-25.856-3.584-51.7632-4.7616-77.824-3.4816l-0.256 5.1712-0.1024 5.1712c-0.4608 16.4352 4.5568 33.4336 15.5648 45.9264 14.848 17.8688 19.7632 41.3696 30.72 61.44 13.6192 30.464 32.4096 58.7776 42.8032 90.624-1.2288 59.3408-4.8128 119.296-0.512 178.4832l3.584 2.0992 3.6864 2.2016c4.352 8.8576 11.1104 16.2304 20.1728 20.3264 1.6384 0.9216 4.864 2.8672 6.5024 3.84 54.1696 9.4208 111.0528 3.7376 166.1952 2.816 12.4928 5.2736 23.5008 13.2096 32.9216 22.8864 9.0112 16.0256 19.6096 31.0784 28.9792 46.9504-86.272 9.216-173.312-1.1264-259.7376 5.2224-37.7344-7.168-71.9872-33.6384-81.92-72.0384-1.3824-35.4304 7.9872-76.6976-3.4816-109.056-9.984-12.032-25.4464-10.8032-34.5088 1.7408-52.2752 85.3504-108.3904 168.2944-161.536 253.1328-8.0384 10.1376-14.1824 21.5552-20.9408 32.512-2.6112 1.0752-7.8336 3.2768-10.4448 4.352-1.792 0.512-5.3248 1.4848-7.1168 1.9968-15.4112-0.8192-30.7712-1.4848-46.1824-2.5088-11.4688-2.1504-22.6816-5.0688-33.6896-8.6528 2.9696-4.9152 5.888-9.8816 8.8064-14.848 21.5552-27.136 37.5808-58.2144 55.296-87.8592 45.312-63.0272 84.8896-129.9968 127.4368-194.9184 12.1344-19.1488 28.6208-42.7008 20.3776-66.56-19.3024-54.8352-48.4352-105.472-73.4208-157.7984-12.6464-5.0176-15.8208 15.9744-24.1664 19.3024-24.9856 27.9552-37.6832 69.2736-75.776 82.8416-27.648-0.256-55.2448-1.1776-82.8928-0.9728-2.4576 0.0512-7.424 0.2048-9.8816 0.3072l-4.9664 0.3584c-0.3584 20.6848-0.6656 41.4208-0.8192 62.1568-20.6848-12.6976-5.6832-41.984-8.3456-60.928 2.6112-10.1888 13.1072-17.7664 23.5008-16.384 24.7296 17.3568 53.8624-4.6592 80.896-1.8432 8.2944-11.2128 15.9232-24.6784 31.3344-26.4192 0.3584-8.3968 1.024-25.1392 1.3312-33.536 7.8336 4.7104 15.3088 11.5712 25.2416 10.2912 0.4096-6.8096 0.3584-13.6192-0.1536-20.4288-18.0224-3.7888-36.1472-5.376-54.528-4.7616-11.7248 8.5504-16.6912 22.272-22.8864 34.7136-13.2608-0.512-26.3168-3.2768-39.5776-3.584-10.5472 2.816-20.7872 11.6736-31.744 5.12-30.3616-4.1984-3.328-41.984-5.5808-58.5216 2.816 13.8752-3.9936 31.488 5.2224 43.2128 16.5376 6.0928 34.3552 6.144 53.4016 0.2048 2.5088-1.3824 7.6288-4.096 10.1376-5.4272 21.504-22.5792 37.0688-50.7392 59.3408-72.9088z" fill="#07A92B" p-id="2862"></path><path d="M547.9936 343.0912c26.0608-1.28 51.968-0.1024 77.824 3.4816-26.0608 0.9216-52.0704 1.6384-78.08 1.6896l0.256-5.1712z" fill="#34A950" p-id="2863"></path><path d="M547.7376 348.2624c26.0096-0.0512 52.0192-0.768 78.08-1.6896 2.2016 0.256 6.6048 0.8192 8.8064 1.0752l1.3824 4.4032c-29.44 1.1264-58.9312 1.28-88.3712 1.3824l0.1024-5.1712z" fill="#B5EEC5" p-id="2864"></path><path d="M634.624 347.648c12.288 0.4608 23.7568 5.6832 33.5872 12.8 18.9952 43.264 46.3872 82.5344 75.3664 119.552 15.104 13.0048 31.0784-3.0208 45.4144-9.5232-0.4096-19.8144-28.416-31.6416-21.248-51.2512 16.384 13.2608 23.8592 33.9968 32.8192 52.4288-7.0144 8.1408-15.1552 15.2064-23.3472 22.1184-7.7312 0.4096-15.4624 2.8672-23.1424 1.4336-36.0448-18.5856-49.5616-60.2112-72.9088-90.88-13.5168-18.0736-22.2208-43.5712-45.1584-52.2752l-1.3824-4.4032z" fill="#2DA84A" p-id="2865"></path><path d="M547.6352 353.4336c29.44-0.1024 58.9312-0.256 88.3712-1.3824 22.9376 8.704 31.6416 34.2016 45.1584 52.2752 23.3472 30.6688 36.864 72.2944 72.9088 90.88 7.68 1.4336 15.4112-1.024 23.1424-1.4336 15.1552 8.704 22.8864-10.9568 36.352-13.5168 4.352 79.0016-4.5056 157.6448-5.0176 236.544 7.7824 15.5136-2.56 25.3952-10.0864 35.5328-44.9024 1.536-90.0608-2.3552-134.8096 2.2016-9.0624-4.096-15.8208-11.4688-20.1728-20.3264-0.6656-56.9856 7.936-116.2752-2.1504-172.2368-1.1776-2.6112-3.4816-7.8848-4.608-10.5472-10.3936-31.8464-29.184-60.16-42.8032-90.624-10.9568-20.0704-15.872-43.5712-30.72-61.44-11.008-12.4928-16.0256-29.4912-15.5648-45.9264z" fill="#F9FDFA" p-id="2866"></path><path d="M0 393.5744c9.3184-5.8368 19.4048-1.536 28.4672 2.4576 5.3248 13.2096 10.6496 26.4704 18.0224 38.7072 26.4704 22.3744 34.304 60.3648 64.3584 79.104 22.9888 46.336 37.7856 97.4336 61.9008 142.592 1.6384 30.7712 1.4336 61.5936 0.3072 92.3648-17.664-65.3312-42.0864-131.5328-92.16-179.4048-10.4448-8.7552-4.2496-29.3376-18.9952-32.6144-23.5008-5.12-26.9312-34.9696-47.9232-43.9296C7.0656 487.5776 3.84 499.4048 0 502.9888V393.5744z" fill="#029F25" p-id="2867"></path><path d="M353.024 435.0464c8.3456-3.328 11.52-24.32 24.1664-19.3024 24.9856 52.3264 54.1184 102.9632 73.4208 157.7984 8.2432 23.8592-8.2432 47.4112-20.3776 66.56-42.5472 64.9216-82.1248 131.8912-127.4368 194.9184-21.9648 15.2576-31.2832 40.3968-47.7696 59.9552-5.9392 11.3152-28.416 6.6048-22.9888-7.5776 14.5408-39.0656-16.6912-75.3152-8.1408-113.92-2.1504-21.1968-15.7184-38.5536-21.504-58.7264-3.2256-20.3264-6.8608-40.6528-11.5712-60.672-0.8192-44.1344-5.1712-89.0368 2.3552-132.7616 27.8016-0.7168 57.1392 4.864 84.0704-3.4304 38.0928-13.568 50.7904-54.8864 75.776-82.8416z" fill="#F8FCF9" p-id="2868"></path><path d="M986.7264 469.6576c11.0592-10.2912 8.8064-41.3184 30.2592-33.1776l7.0144 10.2912v66.7136c-4.352-21.1968-25.9072-1.3312-30.6688 8.8576-24.576 33.536-65.8432 53.76-78.2848 96.1024-10.752 36.5568-43.8784 77.0048-21.504 115.712 5.12 16.5888 31.1296 38.2976 5.8368 50.3296-12.5952-20.0192-24.4736-44.3904-50.176-48.5888 6.6048-1.1776 19.8656-3.6352 26.5216-4.864-1.4336-15.3088-8.2944-29.6448-9.6768-44.9024 4.352-25.1904 5.7344-51.456 17.1008-74.752 21.2992-35.7888 38.5024-74.752 70.7584-102.6048 7.8848-15.5136 19.2512-28.3648 32.8192-39.1168z" fill="#039724" p-id="2869"></path><path d="M189.3376 440.2688c19.2 0 38.4 0.6144 57.6 1.1776-2.5088 1.3312-7.6288 4.0448-10.1376 5.4272-15.9744-0.512-31.8976-1.3312-47.872-1.28l0.4096-5.3248z" fill="#BFF8CA" p-id="2870"></path><path d="M183.3984 446.6688l5.5296-1.0752c15.9744-0.0512 31.8976 0.768 47.872 1.28-19.0464 5.9392-36.864 5.888-53.4016-0.2048z" fill="#45B25A" p-id="2871"></path><path d="M826.3168 465.1008c9.8816 88.7296-4.5056 178.8416 7.5776 267.264-2.304-0.2048-6.912-0.7168-9.1648-0.9728-0.256-88.7296-2.2016-177.6128 1.5872-266.2912z" fill="#159C37" p-id="2872"></path><path d="M0 502.9888c3.84-3.584 7.0656-15.4112 13.9776-10.1376 20.992 8.96 24.4224 38.8096 47.9232 43.9296 14.7456 3.2768 8.5504 23.8592 18.9952 32.6144 50.0736 47.872 74.496 114.0736 92.16 179.4048-1.792 64.7168 0.2048 129.3312 0.256 194.1504-12.1344-15.616-11.5712-36.608-12.7488-55.5008 1.5872-31.4368-7.6288-62.6688-3.072-93.9008-1.536-56.064-18.944-114.0736-57.7536-155.8016-23.3472-34.7136-57.1392-59.392-84.9408-90.2144-5.0688 1.28-9.984 2.8672-14.7968 4.864v-49.408z" fill="#029422" p-id="2873"></path><path d="M993.3312 522.3424c4.7616-10.1888 26.3168-30.0544 30.6688-8.8576v76.4416c-2.9696-4.352-6.3488-8.2432-10.0864-11.8272-17.5104 13.824-36.5568 25.3952-55.1936 37.5296-15.36 30.3616-44.4416 54.6304-46.4384 90.4704 3.584 48.0256 31.9488 90.8288 29.696 139.5712-3.0208-3.9424-6.0928-7.8848-9.1136-11.776-6.7072-8.704-13.1584-17.7152-21.5552-24.9344-6.2464-6.912-10.1888-15.36-11.9296-24.4736 25.2928-12.032-0.7168-33.7408-5.8368-50.3296-22.3744-38.7072 10.752-79.1552 21.504-115.712 12.4416-42.3424 53.7088-62.5664 78.2848-96.1024z" fill="#048920" p-id="2874"></path><path d="M179.5072 517.5808l4.9664-0.3584c-0.9728 142.0288 1.28 284.0576-1.2288 426.0864-9.8304-101.1712-0.256-203.2128-5.0688-304.64 0.6144-19.6608 0.768-39.2704 0.512-58.9312 0.1536-20.736 0.4608-41.472 0.8192-62.1568z" fill="#189635" p-id="2875"></path><path d="M184.4736 517.2224c2.4576-0.1024 7.424-0.256 9.8816-0.3072l-1.1776 4.4032c-7.5264 43.7248-3.1744 88.6272-2.3552 132.7616-1.0752 40.8576-3.1744 81.9712-0.0512 122.7776-1.9456 51.5584-1.3824 103.168-1.3824 154.7264 0 2.5088-0.1024 7.424-0.1536 9.9328l-0.3072 5.2224-5.2736 1.4848-0.4096-4.9152c2.5088-142.0288 0.256-284.0576 1.2288-426.0864z" fill="#89D599" p-id="2876"></path><path d="M194.3552 516.9152c27.648-0.2048 55.2448 0.7168 82.8928 0.9728-26.9312 8.2944-56.2688 2.7136-84.0704 3.4304l1.1776-4.4032z" fill="#A1E6B2" p-id="2877"></path><path d="M0 552.3968c4.8128-1.9968 9.728-3.584 14.7968-4.864 27.8016 30.8224 61.5936 55.5008 84.9408 90.2144 38.8096 41.728 56.2176 99.7376 57.7536 155.8016-4.5568 31.232 4.6592 62.464 3.072 93.9008 1.1776 18.8928 0.6144 39.8848 12.7488 55.5008 3.328 5.3248 6.7584 10.5984 10.1376 15.9232l0.0512 5.0176c-10.4448-4.3008-21.76-8.3968-28.5184-18.0736-16.0256-76.4416 1.536-160.3072-34.4064-232.2944-16.7936-30.6688-36.3008-66.4576-72.704-76.032-14.1312-14.3872-24.1152-38.0416-47.872-34.304v-50.7904z" fill="#01861C" p-id="2878"></path><path d="M636.7232 551.424c1.1264 2.6624 3.4304 7.936 4.608 10.5472-2.048 56.6784-1.1776 113.3568-1.536 170.0352l-3.584-2.0992c-4.3008-59.1872-0.7168-119.1424 0.512-178.4832z" fill="#25A041" p-id="2879"></path><path d="M641.3312 561.9712c10.0864 55.9616 1.4848 115.2512 2.1504 172.2368l-3.6864-2.2016c0.3584-56.6784-0.512-113.3568 1.536-170.0352z" fill="#9EE3AE" p-id="2880"></path><path d="M958.72 615.6288c18.6368-12.1344 37.6832-23.7056 55.1936-37.5296 3.7376 3.584 7.1168 7.4752 10.0864 11.8272v50.9952c-5.4784-3.1744-10.0352-13.2608-17.152-7.8336-29.3888 14.4896-54.016 41.8816-63.3344 73.3696 4.352 38.3488 7.8848 76.9536 16.5888 114.6368 8.704 45.3632-29.184 75.4688-46.2848 112.64-9.6768 33.3824-49.408 40.1408-78.1824 50.2272l-4.096 0.5632c-1.4848-1.5872-4.4032-4.8128-5.8368-6.4-0.2048-2.5088-0.5632-7.4752-0.7168-9.984 40.1408 7.7824 60.6208-34.6112 73.472-64.9728 7.4752-18.8928 27.1872-26.9824 39.7312-41.7792 3.584-4.352 4.864-9.6256 3.7888-15.7184 2.2528-48.7424-26.112-91.5456-29.696-139.5712 1.9968-35.84 31.0784-60.1088 46.4384-90.4704z" fill="#037619" p-id="2881"></path><path d="M0 603.1872c23.7568-3.7376 33.7408 19.9168 47.872 34.304 36.4032 9.5744 55.9104 45.3632 72.704 76.032 35.9424 71.9872 18.3808 155.8528 34.4064 232.2944 6.7584 9.6768 18.0736 13.7728 28.5184 18.0736l0.2048 9.9328c-40.5504-5.5296-61.5424-50.944-60.672-88.1152-4.4032-69.6832-2.5088-147.5584-54.9888-200.96-20.6336-16.5376-38.7072-41.7792-68.0448-40.7552v-40.8064z" fill="#027518" p-id="2882"></path><path d="M1006.848 633.088c7.1168-5.4272 11.6736 4.6592 17.152 7.8336v83.3024c-13.5168-11.8784-0.6144-44.9536-25.0368-38.1952-2.0992 42.2912-3.072 84.5824-2.4064 126.8736-16.384 46.0288-30.208 93.2352-51.3024 137.4208-30.6688 20.224-65.1776 34.1504-100.3008 44.544-2.2528-1.6896-6.7072-5.0688-8.96-6.7584l-0.3584-4.1472c28.7744-10.0864 68.5056-16.8448 78.1824-50.2272 17.1008-37.1712 54.9888-67.2768 46.2848-112.64-8.704-37.6832-12.2368-76.288-16.5888-114.6368 9.3184-31.488 33.9456-58.88 63.3344-73.3696z" fill="#036212" p-id="2883"></path><path d="M172.7488 656.4352c1.5872-5.9904 3.4304-11.9296 5.4272-17.7664 4.8128 101.4272-4.7616 203.4688 5.0688 304.64l0.4096 4.9152-0.2048 10.6496c-3.3792-5.3248-6.8096-10.5984-10.1376-15.9232-0.0512-64.8192-2.048-129.4336-0.256-194.1504 1.1264-30.7712 1.3312-61.5936-0.3072-92.3648z" fill="#0C972B" p-id="2884"></path><path d="M0 643.9936c29.3376-1.024 47.4112 24.2176 68.0448 40.7552 52.48 53.4016 50.5856 131.2768 54.9888 200.96-0.8704 37.1712 20.1216 82.5856 60.672 88.1152 3.6864 4.6592 7.424 9.2672 11.1616 13.9264-45.824-4.1472-108.4416-36.9664-99.0208-91.1872-3.6352-39.2192-4.7616-78.6432-9.5744-117.7088-7.8848-12.7488-16.0768-25.344-21.4016-39.5776-8.3456-2.6112-21.76-1.1776-22.9888-12.7488-1.6384-16.7936-10.752-34.6624-29.8496-34.9696-3.3792 11.1104-6.9632 22.2208-12.032 32.7168v-80.2816z" fill="#026212" p-id="2885"></path><path d="M518.6048 656.896c9.0624-12.544 24.5248-13.7728 34.5088-1.7408 0.8192 36.3008-3.2256 73.1136 3.4816 109.056 9.9328 38.4 44.1856 64.8704 81.92 72.0384 5.12 1.792 10.3424 3.2768 15.616 4.5568 51.2512 8.6016 103.4752 1.6384 155.1872 4.4032-1.5872 28.9792-8.96 57.1392-27.2384 80.128-141.3632 28.5696-286.0032 11.6736-428.8512 11.3152 0.6656-8.96 2.5088-17.7664 3.84-26.624 53.1456-84.8384 109.2608-167.7824 161.536-253.1328z" fill="#F9FCF9" p-id="2886"></path><path d="M190.8224 654.08c4.7104 20.0192 8.3456 40.3456 11.5712 60.672 5.7856 20.1728 19.3536 37.5296 21.504 58.7264-8.5504 38.6048 22.6816 74.8544 8.1408 113.92-5.4272 14.1824 17.0496 18.8928 22.9888 7.5776 16.4864-19.5584 25.8048-44.6976 47.7696-59.9552-17.7152 29.6448-33.7408 60.7232-55.296 87.8592-12.1344 3.6864-25.8048 13.9264-37.7344 4.2496-14.848-5.0176-11.7248-22.1184-12.5952-35.1232 0.9728-38.4-1.1776-77.1584-6.4-115.1488-3.1232-40.8064-1.024-81.92 0.0512-122.7776z" fill="#E7F3EA" p-id="2887"></path><path d="M553.1136 655.1552c11.4688 32.3584 2.0992 73.6256 3.4816 109.056-6.7072-35.9424-2.6624-72.7552-3.4816-109.056z" fill="#48B15F" p-id="2888"></path><path d="M998.9632 686.0288c24.4224-6.7584 11.52 26.3168 25.0368 38.1952v87.8592c-8.7552 65.3824-35.84 132.864-92.4672 170.6496-23.7056 12.8512-47.9232 26.624-74.8032 31.488-2.7136-5.5808-5.6832-10.9568-9.3696-15.9232l-2.4064-3.4304c35.1232-10.3936 69.632-24.32 100.3008-44.544 21.0944-44.1856 34.9184-91.392 51.3024-137.4208-0.6656-42.2912 0.3072-84.5824 2.4064-126.8736z" fill="#03510E" p-id="2889"></path><path d="M12.032 691.5584c19.0976 0.3072 28.2112 18.176 29.8496 34.9696 1.2288 11.5712 14.6432 10.1376 22.9888 12.7488 5.3248 14.2336 13.5168 26.8288 21.4016 39.5776 4.8128 39.0656 5.9392 78.4896 9.5744 117.7088-9.4208 54.2208 53.1968 87.04 99.0208 91.1872l4.096 0.768c3.2768 3.4816 6.5536 6.9632 9.8816 10.4448l1.792 4.1984c-46.4896 4.7616-85.6064-23.6544-129.7408-29.9008C30.1056 935.7312 9.3696 871.936 0 812.0832v-87.808c5.0688-10.496 8.6528-21.6064 12.032-32.7168z" fill="#034E0D" p-id="2890"></path><path d="M833.6384 739.072l5.4784-1.1776c2.5088-0.4608 7.5776-1.4848 10.0864-1.9968 25.7024 4.1984 37.5808 28.5696 50.176 48.5888 1.7408 9.1136 5.6832 17.5616 11.9296 24.4736-2.8672 7.2704-5.4784 14.6432-8.8576 21.6576l-4.1984 0.4096c-9.3696-15.872-19.968-30.9248-28.9792-46.9504 5.7344 3.1744 11.4176 6.4512 17.3056 9.3184-2.0992-29.6448-23.6544-52.224-52.9408-54.3232z" fill="#B3E3BC" p-id="2891"></path><path d="M663.6544 754.5344c44.7488-4.5568 89.9072-0.6656 134.8096-2.2016 7.8336 1.2288 23.552 3.7376 31.4368 4.9664-53.248 0.7168-106.496-0.1536-159.744 1.0752-1.6384-0.9728-4.864-2.9184-6.5024-3.84z" fill="#B4F2C1" p-id="2892"></path><path d="M670.1568 758.3744c53.248-1.2288 106.496-0.3584 159.744-1.0752 1.5872 0.9728 4.864 2.9184 6.4512 3.8912-55.1424 0.9216-112.0256 6.6048-166.1952-2.816z" fill="#37A650" p-id="2893"></path><path d="M190.7712 776.8576a715.264 715.264 0 0 1 6.4 115.1488c0.8704 13.0048-2.2528 30.1056 12.5952 35.1232 11.9296 9.6768 25.6-0.5632 37.7344-4.2496-2.9184 4.9664-5.8368 9.9328-8.8064 14.848-1.1264 1.28-3.3792 3.8912-4.5056 5.2224-15.3088 9.0624-32.256-2.5088-44.8-11.3664 0-51.5584-0.5632-103.168 1.3824-154.7264z" fill="#D9F1DF" p-id="2894"></path><path d="M911.3088 808.96c8.3968 7.2192 14.848 16.2304 21.5552 24.9344-0.3584 6.912-0.9728 13.824-1.7408 20.736-7.3216 0.1024-21.9648 0.3584-29.3376 0.4608-1.536-4.5568-3.072-9.1136-4.7104-13.6192 1.3824-2.7136 4.0448-8.1408 5.376-10.8544 3.3792-7.0144 5.9904-14.3872 8.8576-21.6576z" fill="#A1C7A8" p-id="2895"></path><path d="M898.2528 831.0272l4.1984-0.4096c-1.3312 2.7136-3.9936 8.1408-5.376 10.8544-80.896-1.536-161.9968-3.7376-242.944-0.6656a165.12 165.12 0 0 1-15.616-4.5568c86.4256-6.3488 173.4656 3.9936 259.7376-5.2224z" fill="#66C07A" p-id="2896"></path><path d="M932.864 833.8944c3.0208 3.8912 6.0928 7.8336 9.1136 11.776 1.0752 6.0928-0.2048 11.3664-3.7888 15.7184l-36.608-1.2288 0.2048-5.0688c7.3728-0.1024 22.016-0.3584 29.3376-0.4608 0.768-6.912 1.3824-13.824 1.7408-20.736z" fill="#66B374" p-id="2897"></path><path d="M654.1312 840.8064c80.9472-3.072 162.048-0.8704 242.944 0.6656 1.6384 4.5056 3.1744 9.0624 4.7104 13.6192-13.6192-0.1024-27.1872-0.256-40.7552-0.4608-0.5632-2.1504-1.7408-6.3488-2.304-8.448-16.4352 2.4064-32.9728 0.3072-49.408-0.9728-51.712-2.7648-103.936 4.1984-155.1872-4.4032z" fill="#D3F7D9" p-id="2898"></path><path d="M809.3184 845.2096c16.4352 1.28 32.9728 3.3792 49.408 0.9728 0.5632 2.0992 1.7408 6.2976 2.304 8.448-15.104-3.584-27.7504-2.0992-37.888 4.4032-4.7104 5.632-3.9424 13.568-5.3248 20.3776-3.6352 18.7392-1.2288 39.2192-9.8304 56.832-32.4096 12.3904-67.4816 11.1616-101.4272 15.36-102.4 1.6384-204.8512 0.4608-307.2512 0.6144-20.5824-3.2256-44.8512 3.2256-63.1808-9.6768 6.7584-10.9568 12.9024-22.3744 20.9408-32.512-1.3312 8.8576-3.1744 17.664-3.84 26.624 142.848 0.3584 287.488 17.2544 428.8512-11.3152 18.2784-22.9888 25.6512-51.1488 27.2384-80.128z" fill="#E9F2EB" p-id="2899"></path><path d="M823.1424 859.0336c10.1376-6.5024 22.784-7.9872 37.888-4.4032 13.568 0.2048 27.136 0.3584 40.7552 0.4608l-0.2048 5.0688-4.4544 0.3584c-8.96 0.1536-26.9312 0.4608-35.9424 0.5632l-38.0416-2.048z" fill="#83D192" p-id="2900"></path><path d="M817.8176 879.4112c1.3824-6.8096 0.6144-14.7456 5.3248-20.3776 1.0752 33.28 1.3312 66.6112 1.2288 99.8912l-4.4544-1.5872c-0.1536-3.84-0.512-11.6224-0.6656-15.4624a4220.928 4220.928 0 0 0-1.4336-62.464z" fill="#7ACB8C" p-id="2901"></path><path d="M823.1424 859.0336l38.0416 2.048c-6.3488 1.3824-19.0464 4.0448-25.3952 5.376-8.8576 27.904-6.3488 57.8048-5.7344 86.7328-1.4336 1.4336-4.2496 4.3008-5.6832 5.7344 0.1024-33.28-0.1536-66.6112-1.2288-99.8912z" fill="#159832" p-id="2902"></path><path d="M861.184 861.0816c9.0112-0.1024 26.9824-0.4096 35.9424-0.5632-2.048 9.216-10.5472 13.824-17.0496 19.6096-20.5824 21.2992-13.6704 70.3488-50.0224 73.0624-0.6144-28.928-3.1232-58.8288 5.7344-86.7328 6.3488-1.3312 19.0464-3.9936 25.3952-5.376z" fill="#059B25" p-id="2903"></path><path d="M897.1264 860.5184l4.4544-0.3584 36.608 1.2288c-12.544 14.7968-32.256 22.8864-39.7312 41.7792-12.8512 30.3616-33.3312 72.7552-73.472 64.9728l-0.6144-9.216c1.4336-1.4336 4.2496-4.3008 5.6832-5.7344 36.352-2.7136 29.44-51.7632 50.0224-73.0624 6.5024-5.7856 15.0016-10.3936 17.0496-19.6096z" fill="#04891F" p-id="2904"></path><path d="M807.9872 936.2432c8.6016-17.6128 6.1952-38.0928 9.8304-56.832 0.6144 20.7872 1.1264 41.6256 1.4336 62.464-17.8176 16.384-44.8512 10.4448-66.6112 15.104-136.4992 1.1264-273.0496 0.256-409.6 0.4096-8.192 1.6384-12.6976-5.2224-17.3568-10.496 2.6112-1.0752 7.8336-3.2768 10.4448-4.352 18.3296 12.9024 42.5984 6.4512 63.1808 9.6768 102.4-0.1536 204.8512 1.024 307.2512-0.6144 33.9456-4.1984 69.0176-2.9696 101.4272-15.36z" fill="#DBE9DE" p-id="2905"></path><path d="M189.3888 931.584c12.544 8.8576 29.4912 20.4288 44.8 11.3664l1.3824 4.0448 1.6384 4.5568c26.9312 0.256 54.9376 3.8912 81.3568-2.6624 1.792-0.512 5.3248-1.4848 7.1168-1.9968 4.6592 5.2736 9.1648 12.1344 17.3568 10.496 136.5504-0.1536 273.1008 0.7168 409.6-0.4096 21.76-4.6592 48.7936 1.28 66.6112-15.104 0.1536 3.84 0.512 11.6224 0.6656 15.4624-7.9872 3.4816-16.4864 5.6832-25.088 6.7584-186.3168-6.0928-373.0944 4.9664-559.2576-6.3488-18.5856 5.0176-32.9728-6.3488-46.336-16.2304 0.0512-2.5088 0.1536-7.424 0.1536-9.9328z" fill="#CDDDD0" p-id="2906"></path><path d="M234.1888 942.9504c1.1264-1.3312 3.3792-3.9424 4.5056-5.2224 11.008 3.584 22.2208 6.5024 33.6896 8.6528l-36.8128 0.6144-1.3824-4.0448z" fill="#369B4B" p-id="2907"></path><path d="M189.2352 941.5168c13.3632 9.8816 27.7504 21.248 46.336 16.2304 186.1632 11.3152 372.9408 0.256 559.2576 6.3488-80.4864 11.3152-163.5328-4.8128-243.3024 7.68-7.68 0.3072-15.36 0.3584-23.04 0.1024-63.4368-7.7824-127.8976-4.352-191.6928-2.7648-4.7616 0.512-9.5232 1.4336-14.1824 2.6624l-4.2496-0.256c-42.5984-7.8848-88.1152 2.304-129.1776-13.7216-0.0512-2.7648-0.2048-8.2944-0.256-11.0592l0.3072-5.2224z" fill="#C0D2C2" p-id="2908"></path><path d="M183.6544 948.224l5.2736-1.4848c0.0512 2.7648 0.2048 8.2944 0.256 11.0592-5.12 21.9136 21.2992 21.76 35.9936 24.8832 7.0144 1.5872 10.7008-6.4 16.2304-9.1648l-0.8192 9.5232c-0.256 2.5088-0.8192 7.424-1.1264 9.9328-13.4656-1.8432-26.8288-4.8128-40.4992-4.4544l-4.096-0.768c-3.7376-4.6592-7.4752-9.2672-11.1616-13.9264l-0.2048-9.9328-0.0512-5.0176 0.2048-10.6496z" fill="#67976F" p-id="2909"></path><path d="M235.5712 946.9952l36.8128-0.6144c15.4112 1.024 30.7712 1.6896 46.1824 2.5088-26.4192 6.5536-54.4256 2.9184-81.3568 2.6624l-1.6384-4.5568z" fill="#96DCA4" p-id="2910"></path><path d="M189.184 957.7984c41.0624 16.0256 86.5792 5.8368 129.1776 13.7216-25.6 1.1264-51.3536-0.3072-76.9536 1.9968-5.5296 2.7648-9.216 10.752-16.2304 9.1648-14.6944-3.1232-41.1136-2.9696-35.9936-24.8832z" fill="#95B99B" p-id="2911"></path><path d="M794.8288 964.096c8.6016-1.0752 17.1008-3.2768 25.088-6.7584l-0.8192 10.0864c-88.576 10.7008-178.4832 4.3008-267.5712 4.352 79.7696-12.4928 162.816 3.6352 243.3024-7.68z" fill="#B4C7B6" p-id="2912"></path><path d="M819.9168 957.3376l4.4544 1.5872 0.6144 9.216c0.1536 2.5088 0.512 7.4752 0.7168 9.984-10.8032 7.424-22.1184 16.3328-37.2224 9.8816-146.8416 0.8192-293.7344-0.6656-440.576 0.6656-5.376-3.4304-10.752-6.8608-16.0768-10.2912 8.4992 0.1024 16.9984 0.256 25.4976 0.7168 93.7984 8.8576 188.4672 1.6384 282.6752 3.9424 54.9376-2.2528 110.7968 4.6592 165.2736-3.072 7.68-1.28 16.4352-2.3552 13.824-12.544l0.8192-10.0864z" fill="#83A085" p-id="2913"></path><path d="M322.6112 971.776c4.6592-1.2288 9.4208-2.1504 14.1824-2.6624 63.5904 7.2192 127.8464 2.9696 191.6928 2.7648 7.68 0.256 15.36 0.2048 23.04-0.1024 89.088-0.0512 178.9952 6.3488 267.5712-4.352 2.6112 10.1888-6.144 11.264-13.824 12.544-149.248-3.9424-298.7008-2.2528-447.9488-0.8704-8.4992-0.4608-16.9984-0.6144-25.4976-0.7168-2.3552-0.3072-7.0144-0.8192-9.3696-1.1264l0.1536-5.4784z" fill="#A3BAA5" p-id="2914"></path><path d="M336.7936 969.1136c63.7952-1.5872 128.256-5.0176 191.6928 2.7648-63.8464 0.2048-128.1024 4.4544-191.6928-2.7648z" fill="#B5C7B8" p-id="2915"></path><path d="M80.896 973.2608c44.1344 6.2464 83.2512 34.6624 129.7408 29.9008l8.4992 6.4512c5.7344 5.0176 11.6736 9.728 17.664 14.3872H211.968c-46.0288-8.6016-94.8736-18.6368-131.072-50.7392z" fill="#023208" opacity=".94" p-id="2916"></path><path d="M241.408 973.5168c25.6-2.304 51.3536-0.8704 76.9536-1.9968l4.2496 0.256-0.1536 5.4784c-25.7536 2.7648-53.3504-4.6592-78.1312 4.4032l-3.7376 1.3824 0.8192-9.5232z" fill="#377F45" p-id="2917"></path><path d="M244.3264 981.6576c24.7808-9.0624 52.3776-1.6384 78.1312-4.4032 2.3552 0.3072 7.0144 0.8192 9.3696 1.1264 5.3248 3.4304 10.7008 6.8608 16.0768 10.2912l0.1024 4.6592c-29.2352 2.2016-60.672-5.1712-88.832 4.2496-1.6896-0.9216-4.9664-2.7648-6.6048-3.6864-2.0992-3.072-6.1952-9.1648-8.2432-12.2368z" fill="#0A621A" p-id="2918"></path><path d="M357.3248 979.0976c149.248-1.3824 298.7008-3.072 447.9488 0.8704-54.4768 7.7312-110.336 0.8192-165.2736 3.072-94.208-2.304-188.8768 4.9152-282.6752-3.9424z" fill="#95AD97" p-id="2919"></path><path d="M825.7024 978.1248c1.4336 1.5872 4.352 4.8128 5.8368 6.4-11.7248 5.7344-23.7056 12.7488-37.9392 8.4992-147.0464 0.9216-294.144-0.4608-441.1904 0.6144l-4.4032-0.3072-0.1024-4.6592c146.8416-1.3312 293.7344 0.1536 440.576-0.6656 15.104 6.4512 26.4192-2.4576 37.2224-9.8816z" fill="#718F73" p-id="2920"></path><path d="M240.5888 983.04l3.7376-1.3824c2.048 3.072 6.144 9.1648 8.2432 12.2368-12.4928 11.264-28.928 4.3008-43.7248 5.0688-3.328-3.4816-6.6048-6.9632-9.8816-10.4448 13.6704-0.3584 27.0336 2.6112 40.4992 4.4544 0.3072-2.5088 0.8704-7.424 1.1264-9.9328z" fill="#547E57" p-id="2921"></path><path d="M831.5392 984.5248l4.096-0.5632 0.3584 4.1472c-1.4336 2.816-4.1984 8.448-5.5808 11.264-157.3376-1.9456-314.6752-0.9216-472.0128-0.512-1.4848-1.3312-4.5056-3.8912-5.9904-5.2224 147.0464-1.0752 294.144 0.3072 441.1904-0.6144 14.2336 4.2496 26.2144-2.7648 37.9392-8.4992z" fill="#658567" p-id="2922"></path><path d="M835.9936 988.1088c2.2528 1.6896 6.7072 5.0688 8.96 6.7584l2.4064 3.4304c-11.4176 7.2192-23.04 16.2304-38.4 10.1376-146.944 0.9216-293.9392-0.7168-440.8832 0.768l-5.5296-5.3248c154.9824-1.4336 310.016 1.1776 464.9984-1.28l2.8672-3.2256c1.3824-2.816 4.1472-8.448 5.5808-11.264z" fill="#436445" p-id="2923"></path><path d="M252.5696 993.8944c1.6384 0.9216 4.9152 2.7648 6.6048 3.6864 1.8432 2.6624 5.5296 7.8848 7.424 10.5472-15.872 0.3072-31.6416 0.768-47.4624 1.4848l-8.4992-6.4512-1.792-4.1984c14.7968-0.768 31.232 6.1952 43.7248-5.0688z" fill="#3A663F" p-id="2924"></path><path d="M259.1744 997.5808c28.16-9.4208 59.5968-2.048 88.832-4.2496l4.4032 0.3072c1.4848 1.3312 4.5056 3.8912 5.9904 5.2224l-0.3072 4.6592c-28.9792 6.912-58.6752-0.256-87.5008 4.608h-3.9936c-1.8944-2.6624-5.5808-7.8848-7.424-10.5472z" fill="#044D0F" p-id="2925"></path><path d="M358.4 998.8608c157.3376-0.4096 314.6752-1.4336 472.0128 0.512l-2.8672 3.2256c-154.9824 2.4576-310.016-0.1536-464.9984 1.28l-4.4544-0.3584 0.3072-4.6592z" fill="#4F6E50" p-id="2926"></path><path d="M847.36 998.2976c3.6864 4.9664 6.656 10.3424 9.3696 15.9232l-4.9664 1.1264c-159.5392-3.1744-319.1296-1.4848-478.6688-0.9216-1.28-1.3312-3.7888-3.8912-5.0176-5.2224 146.944-1.4848 293.9392 0.1536 440.8832-0.768 15.36 6.0928 26.9824-2.9184 38.4-10.1376z" fill="#355537" p-id="2927"></path><path d="M270.592 1008.128c28.8256-4.864 58.5216 2.304 87.5008-4.608l4.4544 0.3584 5.5296 5.3248c1.2288 1.3312 3.7376 3.8912 5.0176 5.2224l7.1168 9.5744H282.6752c-4.0448-5.2736-8.1408-10.5472-12.0832-15.872z" fill="#08360E" p-id="2928"></path><path d="M219.136 1009.6128c15.8208-0.7168 31.5904-1.1776 47.4624-1.4848h3.9936c3.9424 5.3248 8.0384 10.5984 12.0832 15.872h-45.8752c-5.9904-4.6592-11.9296-9.3696-17.664-14.3872z" fill="#28472C" p-id="2929"></path><path d="M373.0944 1014.4256c159.5392-0.5632 319.1296-2.2528 478.6688 0.9216-13.056 3.6352-26.5216 5.6832-39.68 8.6528H380.2112l-7.1168-9.5744z" fill="#2B472E" p-id="2930"></path></svg>