<?xml version="1.0" standalone="no"?><!DOCTYPE svg PUBLIC "-//W3C//DTD SVG 1.1//EN" "http://www.w3.org/Graphics/SVG/1.1/DTD/svg11.dtd"><svg t="1607348709873" class="icon" viewBox="0 0 1126 1024" version="1.1" xmlns="http://www.w3.org/2000/svg" p-id="1723" width="17.59375" height="16" xmlns:xlink="http://www.w3.org/1999/xlink"><defs><style type="text/css"></style></defs><path d="M972.8 0H153.6a153.6 153.6 0 0 0-153.6 153.6v716.8a153.6 153.6 0 0 0 153.6 153.6h819.2a153.6 153.6 0 0 0 153.6-153.6V153.6a153.6 153.6 0 0 0-153.6-153.6zM153.6 102.4h819.2a51.2 51.2 0 0 1 51.2 51.2v716.8a51.2 51.2 0 0 1-51.2 51.2H153.6a51.2 51.2 0 0 1-51.2-51.2V153.6a51.2 51.2 0 0 1 51.2-51.2z" fill="#707070" p-id="1724"></path><path d="M312.32 716.8V351.232h-41.984c-12.288 13.312-27.648 25.088-46.08 36.352-18.432 10.24-35.328 17.408-51.712 21.504v55.296c33.792-9.728 61.952-25.088 83.968-46.08V716.8H312.32z m327.68 0v-49.152H457.216c7.68-19.968 31.232-43.008 70.656-69.12 36.352-24.576 61.44-44.032 75.776-58.88 23.552-26.112 35.84-54.784 35.84-86.528 0-32.256-11.264-58.368-33.28-78.848-22.528-20.48-51.712-30.208-86.528-30.208-38.912 0-70.656 12.8-94.208 39.424-23.04 24.576-34.816 57.344-35.328 98.304h55.808c1.024-29.696 7.168-51.712 19.456-67.072 11.776-15.872 29.184-23.552 52.224-23.552 21.504 0 38.4 5.12 49.664 15.36 11.264 10.24 16.896 25.6 16.896 46.08 0 21.504-8.704 41.472-25.088 59.904-10.24 10.752-27.648 24.576-52.224 41.984-41.472 28.672-69.12 50.688-82.432 66.56-24.576 27.648-36.352 59.392-36.352 95.744h251.904z m182.784 7.168c38.912 0 71.168-11.264 95.744-32.768 23.04-21.504 34.816-49.152 34.816-82.944 0-21.504-6.144-39.424-18.432-53.248-11.264-13.312-27.648-23.552-49.152-30.208 39.936-13.312 60.416-40.448 60.416-80.384 0-31.232-11.264-55.808-32.768-73.728-22.528-17.92-51.712-26.624-88.576-26.624-35.84 0-65.024 9.728-87.552 30.208-24.064 20.48-37.376 48.64-40.448 84.992h54.784c2.048-22.528 9.728-39.424 22.016-50.688 12.288-11.264 29.696-16.896 51.712-16.896 21.504 0 38.4 4.608 49.664 14.848 10.24 9.728 15.872 23.552 15.872 41.984 0 18.432-6.144 32.768-17.408 42.496-11.264 9.728-28.16 14.848-50.688 14.848h-26.112v41.984h26.624c24.064 0 42.496 5.12 54.784 15.36 13.312 10.24 19.968 26.112 19.968 47.616 0 18.432-6.656 33.28-18.944 45.568-14.336 13.312-33.28 20.48-56.832 20.48-21.504 0-38.912-6.144-52.224-18.432-15.36-13.312-23.04-32.256-24.064-56.832h-56.32c3.072 40.96 17.408 72.192 43.008 93.696 22.528 18.944 52.736 28.672 90.112 28.672z" fill="#707070" p-id="1725"></path></svg>